<?xml version="1.0" standalone="no"?>
<svg xmlns="http://www.w3.org/2000/svg" viewBox="0 0 104 60" width="104" height="60"><g fill="#ff8686" color="#ff8686" transform="translate(37.249 0) scale(0.5740741) "><svg width="50.0" height="54.0" x="0.0" y="0.0" viewBox="0 0 50 54"><path fill="currentColor" fill-rule="evenodd" d="M47.431 51.939l-7.898-1.25.029-8.411.053-2.538 7.816 12.199zM38.12 36.031l-.112 5.749-20.116-6.569.25-.822c.02-.036.028-.068.038-.101l7.247-23.331L38.12 36.031zM20.882 20.274l-3.644 11.72-8-16.075 11.644 4.355zm5.389-11.085l11.4-6.724-5.306 18.764-6.094-12.04zm7.147 14.098l3-10.628 7.335-2.946L33.698 23.84l-.28-.553zM9.879 20.714l-7.244-.649 4.779-4.306 2.465 4.955zm39.815 31.857L39.672 36.932l.019-1.014a.719.719 0 0 0-.087-.418l-5.102-10.075L46.573 8.461c.162-.22.2-.503.1-.763a.8.8 0 0 0-1.014-.437l-8.699 3.49 2.751-9.749a.81.81 0 0 0-.075-.617.801.801 0 0 0-.488-.361.768.768 0 0 0-.583.083l-13.72 8.1a.758.758 0 0 0-.352.462l-3.142 10.107-13.364-5a.78.78 0 0 0-.694.023 1.516 1.516 0 0 0-.169.119L.273 20.1a.775.775 0 0 0-.271.546.77.77 0 0 0 .205.576.816.816 0 0 0 .542.26l9.961.888 5.873 11.795-.412 1.329a.834.834 0 0 0 .043.584.77.77 0 0 0 .46.402L38 43.444l-.029 7.939a.79.79 0 0 0 .661.777l10.225 1.614c.071.019.136.019.184.019.138 0 .28-.038.45-.137.331-.274.418-.739.203-1.085z"></path></svg></g><line x1="38.10925925925926" y1="37" x2="65.09074074074074" y2="37" stroke="#fe0b01" stroke-linecap="round"></line><path fill="#fe0b01" fill-rule="nonzero" d="M19.78 16.51L14.52 16.51L14.52 10.56Q14.52 9.46 14.60 8.29Q14.69 7.13 14.78 6.34Q14.88 5.54 14.90 5.33L14.90 5.33L14.81 5.33L11.76 16.51L7.61 16.51L4.54 5.35L4.44 5.35Q4.46 5.57 4.57 6.35Q4.68 7.13 4.78 8.29Q4.87 9.46 4.87 10.56L4.87 10.56L4.87 16.51L0 16.51L0 0L7.49 0L9.98 9.53L10.08 9.53L12.55 0L19.78 0L19.78 16.51ZM22.99 16.51L22.99 0L37.27 0L37.27 3.96L28.30 3.96L28.30 6.24L35.98 6.24L35.98 10.03L28.30 10.03L28.30 12.55L37.44 12.55L37.44 16.51L22.99 16.51ZM55.99 5.06Q55.99 6.58 55.18 7.80Q54.36 9.02 52.80 9.60L52.80 9.60L56.47 16.51L50.52 16.51L47.59 10.49L45.62 10.49L45.62 16.51L40.32 16.51L40.32 0L50.42 0Q52.20 0 53.46 0.68Q54.72 1.37 55.36 2.53Q55.99 3.70 55.99 5.06L55.99 5.06ZM50.59 5.28Q50.59 4.63 50.16 4.20Q49.73 3.77 49.10 3.77L49.10 3.77L45.62 3.77L45.62 6.82L49.10 6.82Q49.73 6.82 50.16 6.37Q50.59 5.93 50.59 5.28L50.59 5.28ZM75.67 16.51L70.06 16.51L69.36 14.18L63.58 14.18L62.88 16.51L57.46 16.51L63.48 0L69.65 0L75.67 16.51ZM66.43 4.61L64.68 10.49L68.26 10.49L66.53 4.61L66.43 4.61ZM82.97 7.06L88.85 0L95.42 0L89.50 6.79L95.54 16.51L89.28 16.51L85.85 10.46L82.97 12.82L82.97 16.51L77.66 16.51L77.66 0L82.97 0L82.97 7.06ZM103.20 16.51L97.90 16.51L97.90 0L103.20 0L103.20 16.51Z" transform="translate(0, 43)"></path></svg>